<svg xmlns="http://www.w3.org/2000/svg" width="1024" height="1024"><path fill="#f6bc15" d="M195 103c-53 0-103 18-140 55-85 85-70 237 34 341l10 10 54 40c96 56 209 53 277-16 69-68 72-181 16-277l-40-53-10-11c-58-58-132-89-201-89Z"/><path fill="#3dbab3" d="M429 309c10-21 15-39 17-53-11-18-25-36-40-53l-1 1c-7 7-7 18 0 25s9 28-8 65c-18 38-49 80-89 120-84 84-165 112-183 94-7-7-18-7-25 0l-1 1c17 15 35 29 54 40 52-6 123-52 181-110 42-42 76-88 95-130z"/><path fill="#7a83bf" d="m363 817 9-11 255-234 6-7a179 179 0 0 1-70-72l-8 7-234 255-11 9-88 54a33 33 0 0 0-6 51l42 42c15 15 40 12 51-6l54-88z"/><path fill="#f6bc15" d="M829 105c-69 1-143 31-201 89-16 17-30 34-42 52l-19 34c-44 90-37 192 27 255 64 64 166 71 256 27l29-16c20-13 39-27 56-45 104-103 119-256 34-341-37-37-87-55-140-55z"/><path fill="#7a83bf" d="M920 404c-5-5-12-7-19-5l-104 32 29-108a18 18 0 0 0-22-22l-108 30 32-105a18 18 0 0 0-23-22l-119 42c-7 11-14 22-19 34 5 5 12 7 19 4l97-34-31 101a18 18 0 0 0 22 23l109-30-30 109a18 18 0 0 0 23 22l101-31-34 97c-3 8 0 17 7 21l29-16 44-124c3-6 1-13-3-18z"/><path fill="#3dbab3" d="M460 494a179 179 0 0 1-72 70l6 8 255 234 10 11 53 88c11 18 36 21 51 6l43-42c15-15 12-40-6-51l-88-54-11-9-235-255-6-6z"/></svg>